<?xml version="1.0" encoding="UTF-8"?>
<!DOCTYPE svg PUBLIC "-//W3C//DTD SVG 1.1//EN" "http://www.w3.org/Graphics/SVG/1.1/DTD/svg11.dtd">
<!-- Creator: CorelDRAW 2021 (64-Bit) -->
<svg xmlns="http://www.w3.org/2000/svg" xml:space="preserve" width="142.993mm" height="48.1984mm" version="1.1" style="shape-rendering:geometricPrecision; text-rendering:geometricPrecision; image-rendering:optimizeQuality; fill-rule:evenodd; clip-rule:evenodd"
viewBox="0 0 12536.6 4225.7"
 xmlns:xlink="http://www.w3.org/1999/xlink"
 xmlns:xodm="http://www.corel.com/coreldraw/odm/2003">
 <defs>
  <style type="text/css">
   <![CDATA[
    .fil4 {fill:#17B9BE}
    .fil0 {fill:#1A44BA}
    .fil3 {fill:#F4044F}
    .fil2 {fill:#FBCD06}
    .fil6 {fill:#0021A5;fill-rule:nonzero}
    .fil5 {fill:#008F00;fill-rule:nonzero}
    .fil1 {fill:white;fill-rule:nonzero}
   ]]>
  </style>
 </defs>
 <g id="Layer_x0020_1">
  <metadata id="CorelCorpID_0Corel-Layer"/>
  <g id="_2052200499744">
   <g>
    <rect class="fil0" x="-0" y="-0" width="2388.55" height="2388.55" rx="402.89" ry="402.89"/>
    <polygon class="fil1" points="417.06,374.92 826.74,374.92 1194.28,1046.8 1580.55,374.92 1971.5,374.92 1369.86,1404.97 1369.86,2013.64 1018.71,2013.64 1018.71,1404.97 "/>
   </g>
   <g>
    <rect class="fil2" x="2537.01" y="-0" width="2388.55" height="2388.55" rx="402.89" ry="402.89"/>
    <path class="fil1" d="M2962.27 1194.28c0,-167 32.77,-313.31 98.32,-438.94 65.55,-125.64 159.58,-222.79 282.1,-291.46 122.51,-68.67 266.49,-103.01 431.92,-103.01 129.54,0 245.81,24.97 348.81,74.92 103.01,49.94 186.11,120.17 249.32,210.69 63.2,90.52 101.83,194.31 115.88,311.36l-346.47 0c-21.86,-92.08 -65.55,-165.04 -131.1,-218.88 -65.55,-53.85 -147.48,-80.76 -245.81,-80.76 -90.52,0 -169.34,22.63 -236.45,67.89 -67.11,45.26 -118.61,108.47 -154.51,189.63 -35.9,81.15 -53.85,174.01 -53.85,278.58 0,160.75 39.41,290.29 118.23,388.61 78.81,98.32 187.67,147.48 326.57,147.48 101.45,0 191.18,-27.7 269.22,-83.11 78.03,-55.41 124.86,-136.95 140.46,-244.64l0 -21.07 -407.34 0 0 -278.58 732.74 0 0 910.66 -243.46 0 -37.46 -203.67c-48.38,63.99 -113.15,116.27 -194.3,156.86 -81.16,40.58 -175.58,60.86 -283.26,60.86 -154.51,0 -290.68,-34.33 -408.51,-103.01 -117.83,-68.67 -209.14,-166.21 -273.9,-292.63 -64.77,-126.42 -97.15,-272.34 -97.15,-437.77z"/>
   </g>
   <g>
    <rect class="fil3" x="5074.02" y="-0" width="2388.55" height="2388.55" rx="402.89" ry="402.89"/>
    <polygon class="fil1" points="5705.28,374.92 6805.57,374.92 6805.57,676.91 6056.44,676.91 6056.44,1044.46 6665.1,1044.46 6665.1,1332.4 6056.44,1332.4 6056.44,1711.65 6831.32,1711.65 6831.32,2013.64 5705.28,2013.64 "/>
   </g>
   <g>
    <rect class="fil4" x="7611.03" y="-0" width="2388.55" height="2388.55" rx="402.89" ry="402.89"/>
    <path class="fil1" d="M8107.68 374.92l568.87 0c163.88,0 308.63,34.73 434.26,104.18 125.64,69.45 222.4,166.21 290.29,290.29 67.89,124.07 101.83,265.7 101.83,424.9 0,159.19 -33.95,300.82 -101.83,424.89 -67.89,124.07 -164.66,220.84 -290.29,290.29 -125.64,69.45 -270.38,104.17 -434.26,104.17l-568.87 0 0 -1638.72zm568.87 1346.1c148.27,0 263.37,-47.99 345.31,-143.98 81.93,-95.98 122.9,-223.57 122.9,-382.75 0,-159.2 -40.97,-286.78 -122.9,-382.76 -81.94,-95.98 -197.04,-143.97 -345.31,-143.97l-217.71 0 0 1053.46 217.71 0z"/>
   </g>
   <g>
    <rect class="fil0" x="10148.04" y="-0" width="2388.55" height="2388.55" rx="402.89" ry="402.89"/>
    <path class="fil1" d="M11020.43 367.89l0 950.46c0,132.66 25.75,232.54 77.25,299.65 51.51,67.11 132.66,100.67 243.47,100.67 110.81,0 192.35,-33.55 244.64,-100.67 52.28,-67.11 78.42,-166.99 78.42,-299.65l0 -950.46 351.15 0 0 931.74c0,234.1 -57.36,412.8 -172.06,536.09 -114.71,123.29 -282.1,184.94 -502.16,184.94 -220.06,0 -387.05,-61.64 -500.98,-184.94 -113.93,-123.29 -170.89,-302 -170.89,-536.09l0 -931.74 351.16 0z"/>
   </g>
  </g>
  <path class="fil5" d="M2017.3 3768.86l133.95 0c46.59,0 87.03,9.38 121.32,28.14 34.3,18.77 60.61,45.19 78.95,79.27 18.33,34.08 27.49,73.76 27.49,119.06 0,44.86 -9.16,84.45 -27.49,118.74 -18.34,34.3 -44.65,60.83 -78.95,79.59 -34.29,18.77 -74.73,28.15 -121.32,28.15l-133.95 0 0 -452.95zm133.95 401.19c53.92,0 95.77,-15.75 125.53,-47.24 29.76,-31.49 44.65,-73.99 44.65,-127.48 0,-53.93 -14.78,-96.52 -44.33,-127.8 -29.55,-31.27 -71.51,-46.91 -125.85,-46.91l-77.65 0 0 349.43 77.65 0z"/>
  <polygon id="_1" class="fil5" points="2450.2,3768.86 2738.79,3768.86 2738.79,3820.62 2506.49,3820.62 2506.49,3965.57 2699.97,3965.57 2699.97,4017.33 2506.49,4017.33 2506.49,4170.05 2747.21,4170.05 2747.21,4221.81 2450.2,4221.81 "/>
  <path id="_2" class="fil5" d="M2778.91 3995.34c0,-45.3 8.85,-85.41 26.53,-120.36 17.68,-34.95 42.92,-62.01 75.71,-81.21 32.79,-19.19 70.75,-28.79 113.89,-28.79 50.04,0 92,13.59 125.85,40.77 33.87,27.18 55.11,64.27 63.74,111.29l-56.29 0c-8.2,-31.49 -24.27,-56.08 -48.2,-73.77 -23.94,-17.68 -53.17,-26.53 -87.68,-26.53 -31.06,0 -58.45,7.56 -82.18,22.65 -23.72,15.1 -41.95,36.12 -54.67,63.09 -12.73,26.96 -19.09,57.91 -19.09,92.85 0,34.51 6.36,65.35 19.09,92.53 12.72,27.18 30.95,48.32 54.67,63.41 23.73,15.1 51.12,22.65 82.18,22.65 34.94,0 64.06,-8.73 87.36,-26.21 23.29,-17.47 39.25,-42.16 47.88,-74.09l56.29 0c-8.63,47.03 -29.65,84.12 -63.09,111.3 -33.43,27.18 -75.38,40.77 -125.85,40.77 -43.14,0 -81.1,-9.6 -113.89,-28.8 -32.78,-19.19 -58.02,-46.15 -75.71,-80.88 -17.68,-34.73 -26.53,-74.95 -26.53,-120.68z"/>
  <polygon id="_3" class="fil5" points="3255.16,3768.86 3543.75,3768.86 3543.75,3820.62 3311.45,3820.62 3311.45,3965.57 3504.93,3965.57 3504.93,4017.33 3311.45,4017.33 3311.45,4170.05 3552.17,4170.05 3552.17,4221.81 3255.16,4221.81 "/>
  <polygon id="_4" class="fil5" points="3615.58,4221.81 3615.58,3768.86 3667.34,3768.86 3910.64,4118.28 3910.64,3768.86 3965.65,3768.86 3965.65,4221.81 3913.88,4221.81 3670.58,3872.39 3670.58,4221.81 "/>
  <polygon id="_5" class="fil5" points="4025.83,3768.86 4375.91,3768.86 4375.91,3820.62 4229.01,3820.62 4229.01,4221.81 4172.72,4221.81 4172.72,3820.62 4025.83,3820.62 "/>
  <path id="_6" class="fil5" d="M4609.5 3768.86c29.76,0 56.08,5.72 78.94,17.15 22.87,11.43 40.55,27.61 53.06,48.53 12.51,20.93 18.77,45.41 18.77,73.44 0,31.49 -8.74,58.78 -26.21,81.86 -17.46,23.08 -40.87,38.72 -70.2,46.91l101.59 185.07 -63.41 0 -93.83 -174.07 -115.82 0 0 174.07 -56.29 0 0 -452.95 173.42 0zm-117.12 227.13l112.59 0c29.76,0 53.49,-7.99 71.18,-23.94 17.68,-15.97 26.53,-37.31 26.53,-64.06 0,-26.31 -8.85,-47.45 -26.53,-63.41 -17.69,-15.96 -41.2,-23.94 -70.53,-23.94l-113.24 0 0 175.36z"/>
  <path id="_7" class="fil5" d="M4785.51 4221.81l172.77 -452.95 66.65 0 172.12 452.95 -60.17 0 -47.89 -122.3 -197.36 0 -47.89 122.3 -58.23 0zm122.94 -173.42l163.71 0 -82.18 -218.07 -81.54 218.07z"/>
  <polygon id="_8" class="fil5" points="5248.17,4221.81 5248.17,3768.86 5304.46,3768.86 5304.46,4170.05 5510.88,4170.05 5510.88,4221.81 "/>
  <polygon id="_9" class="fil5" points="5571.06,3768.86 5627.35,3768.86 5627.35,4221.81 5571.06,4221.81 "/>
  <path id="_10" class="fil5" d="M5754.18 4073.63c2.16,30.63 14.46,55.11 36.88,73.44 22.44,18.34 50.9,27.5 85.42,27.5 31.05,0 56.18,-6.79 75.38,-20.38 19.19,-13.59 28.79,-32.46 28.79,-56.62 0,-17.68 -5.28,-31.7 -15.85,-42.06 -10.56,-10.35 -24.15,-18.01 -40.77,-22.97 -16.61,-4.96 -39.15,-9.82 -67.61,-14.56 -45.3,-7.77 -81.32,-20.49 -108.07,-38.17 -26.75,-17.69 -40.12,-46.38 -40.12,-86.07 0,-25.45 6.47,-47.99 19.41,-67.61 12.94,-19.63 31.17,-34.84 54.68,-45.63 23.51,-10.78 50.36,-16.18 80.56,-16.18 31.92,0 60.18,5.82 84.76,17.47 24.59,11.64 44,27.93 58.24,48.85 14.23,20.93 22.22,44.98 23.94,72.15l-55.65 0c-3.45,-26.32 -15.32,-47.46 -35.59,-63.41 -20.28,-15.97 -45.51,-23.94 -75.71,-23.94 -30.2,0 -54.15,6.58 -71.83,19.74 -17.68,13.16 -26.53,31.6 -26.53,55.32 0,17.25 5.18,30.74 15.53,40.44 10.35,9.71 23.73,17.04 40.12,22.01 16.39,4.95 38.83,9.81 67.3,14.55 45.3,7.77 81.54,20.6 108.71,38.51 27.17,17.9 40.76,46.69 40.76,86.38 0,25.88 -6.79,48.96 -20.38,69.24 -13.59,20.28 -32.57,36.02 -56.94,47.24 -24.37,11.21 -52.31,16.82 -83.8,16.82 -35.38,0 -66.22,-6.37 -92.54,-19.09 -26.31,-12.73 -46.69,-30.63 -61.14,-53.71 -14.46,-23.08 -22.33,-49.5 -23.62,-79.27l55.65 0z"/>
  <polygon id="_11" class="fil5" points="6108.13,3768.86 6396.73,3768.86 6396.73,3820.62 6164.43,3820.62 6164.43,3965.57 6357.9,3965.57 6357.9,4017.33 6164.43,4017.33 6164.43,4170.05 6405.14,4170.05 6405.14,4221.81 6108.13,4221.81 "/>
  <path id="_12" class="fil5" d="M6468.56 3768.86l133.95 0c46.59,0 87.03,9.38 121.32,28.14 34.3,18.77 60.61,45.19 78.95,79.27 18.33,34.08 27.49,73.76 27.49,119.06 0,44.86 -9.16,84.45 -27.49,118.74 -18.34,34.3 -44.65,60.83 -78.95,79.59 -34.29,18.77 -74.73,28.15 -121.32,28.15l-133.95 0 0 -452.95zm133.95 401.19c53.92,0 95.77,-15.75 125.53,-47.24 29.76,-31.49 44.65,-73.99 44.65,-127.48 0,-53.93 -14.78,-96.52 -44.33,-127.8 -29.55,-31.27 -71.51,-46.91 -125.85,-46.91l-77.65 0 0 349.43 77.65 0z"/>
  <path id="_13" class="fil5" d="M7124.7 3768.86l0 262.71c0,94.91 38.6,142.35 115.82,142.35 78.08,0 117.12,-47.45 117.12,-142.35l0 -262.71 56.29 0 0 259.48c0,64.71 -14.77,113.78 -44.33,147.21 -29.55,33.43 -72.58,50.15 -129.09,50.15 -56.51,0 -99.32,-16.72 -128.45,-50.15 -29.12,-33.43 -43.67,-82.5 -43.67,-147.21l0 -259.48 56.29 0z"/>
  <polygon id="_14" class="fil5" points="7499.36,4221.81 7499.36,3768.86 7551.12,3768.86 7794.43,4118.28 7794.43,3768.86 7849.43,3768.86 7849.43,4221.81 7797.66,4221.81 7554.36,3872.39 7554.36,4221.81 "/>
  <polygon id="_15" class="fil5" points="7937.44,3768.86 7993.73,3768.86 7993.73,4221.81 7937.44,4221.81 "/>
  <polygon id="_16" class="fil5" points="8043.56,3768.86 8103.09,3768.86 8241.57,4155.16 8379.4,3768.86 8437.63,3768.86 8274.57,4221.81 8206.62,4221.81 "/>
  <polygon id="_17" class="fil5" points="8487.45,3768.86 8776.05,3768.86 8776.05,3820.62 8543.75,3820.62 8543.75,3965.57 8737.23,3965.57 8737.23,4017.33 8543.75,4017.33 8543.75,4170.05 8784.46,4170.05 8784.46,4221.81 8487.45,4221.81 "/>
  <path id="_18" class="fil5" d="M9021.3 3768.86c29.76,0 56.08,5.72 78.94,17.15 22.87,11.43 40.55,27.61 53.06,48.53 12.51,20.93 18.77,45.41 18.77,73.44 0,31.49 -8.74,58.78 -26.21,81.86 -17.46,23.08 -40.87,38.72 -70.2,46.91l101.59 185.07 -63.41 0 -93.83 -174.07 -115.82 0 0 174.07 -56.29 0 0 -452.95 173.42 0zm-117.12 227.13l112.59 0c29.76,0 53.49,-7.99 71.18,-23.94 17.68,-15.97 26.53,-37.31 26.53,-64.06 0,-26.31 -8.85,-47.45 -26.53,-63.41 -17.69,-15.96 -41.2,-23.94 -70.53,-23.94l-113.24 0 0 175.36z"/>
  <path id="_19" class="fil5" d="M9277.54 4073.63c2.16,30.63 14.46,55.11 36.88,73.44 22.44,18.34 50.9,27.5 85.42,27.5 31.05,0 56.18,-6.79 75.38,-20.38 19.19,-13.59 28.79,-32.46 28.79,-56.62 0,-17.68 -5.28,-31.7 -15.85,-42.06 -10.56,-10.35 -24.15,-18.01 -40.77,-22.97 -16.61,-4.96 -39.15,-9.82 -67.61,-14.56 -45.3,-7.77 -81.32,-20.49 -108.07,-38.17 -26.75,-17.69 -40.12,-46.38 -40.12,-86.07 0,-25.45 6.47,-47.99 19.41,-67.61 12.94,-19.63 31.17,-34.84 54.68,-45.63 23.51,-10.78 50.36,-16.18 80.56,-16.18 31.92,0 60.18,5.82 84.76,17.47 24.59,11.64 44,27.93 58.24,48.85 14.23,20.93 22.22,44.98 23.94,72.15l-55.65 0c-3.45,-26.32 -15.32,-47.46 -35.59,-63.41 -20.28,-15.97 -45.51,-23.94 -75.71,-23.94 -30.2,0 -54.15,6.58 -71.83,19.74 -17.68,13.16 -26.53,31.6 -26.53,55.32 0,17.25 5.18,30.74 15.53,40.44 10.35,9.71 23.73,17.04 40.12,22.01 16.39,4.95 38.83,9.81 67.3,14.55 45.3,7.77 81.54,20.6 108.71,38.51 27.17,17.9 40.76,46.69 40.76,86.38 0,25.88 -6.79,48.96 -20.38,69.24 -13.59,20.28 -32.57,36.02 -56.94,47.24 -24.37,11.21 -52.31,16.82 -83.8,16.82 -35.38,0 -66.22,-6.37 -92.54,-19.09 -26.31,-12.73 -46.69,-30.63 -61.14,-53.71 -14.46,-23.08 -22.33,-49.5 -23.62,-79.27l55.65 0z"/>
  <polygon id="_20" class="fil5" points="9631.49,3768.86 9687.79,3768.86 9687.79,4221.81 9631.49,4221.81 "/>
  <polygon id="_21" class="fil5" points="9747.96,3768.86 10098.04,3768.86 10098.04,3820.62 9951.15,3820.62 9951.15,4221.81 9894.86,4221.81 9894.86,3820.62 9747.96,3820.62 "/>
  <polygon id="_22" class="fil5" points="10121.34,3768.21 10187.34,3768.21 10320.64,3993.39 10455.88,3768.21 10519.29,3768.21 10348.46,4054.22 10348.46,4221.81 10292.17,4221.81 10292.17,4054.22 "/>
  <polygon class="fil6" points="402.58,2902.49 544.02,2902.49 670.91,3134.46 804.27,2902.49 939.24,2902.49 731.53,3258.11 731.53,3468.26 610.29,3468.26 610.29,3258.11 "/>
  <path id="_1_0" class="fil6" d="M853.58 3468.26l206.91 -565.76 145.48 0 205.3 565.76 -130.12 0 -43.64 -123.66 -214.99 0 -43.64 123.66 -125.28 0zm201.24 -221.45l149.53 0 -75.16 -214.99 -74.36 214.99z"/>
  <path id="_2_1" class="fil6" d="M1538.95 3283.98c2.16,28.02 13.61,50.52 34.35,67.49 20.75,16.97 48.36,25.46 82.85,25.46 28.56,0 51.86,-6.07 69.91,-18.18 18.05,-12.13 27.07,-28.97 27.07,-50.52 0,-15.09 -4.98,-27.07 -14.95,-35.96 -9.97,-8.89 -23.98,-15.9 -42.03,-21.02 -18.05,-5.12 -45.93,-11.45 -83.66,-19 -37.17,-7.01 -68.43,-16.03 -93.75,-27.07 -25.33,-11.05 -45.93,-27.48 -61.84,-49.3 -15.9,-21.82 -23.84,-50.79 -23.84,-86.88 0,-32.87 9.02,-62.24 27.07,-88.1 18.05,-25.86 43.11,-46.2 75.17,-61.02 32.05,-14.82 68.29,-22.23 108.71,-22.23 41.49,0 78.8,7.68 111.94,23.03 33.13,15.36 59.27,36.51 78.4,63.45 19.13,26.94 28.96,57.38 29.5,91.33l-118.81 0c-2.69,-24.24 -12.93,-43.78 -30.71,-58.59 -17.78,-14.83 -41.22,-22.23 -70.31,-22.23 -26.94,0 -48.49,5.66 -64.66,16.97 -16.17,11.32 -24.25,27.49 -24.25,48.5 0,15.08 4.85,26.8 14.55,35.16 9.7,8.35 23.43,15.09 41.22,20.2 17.78,5.12 45.27,11.19 82.44,18.19 37.72,7.01 69.51,15.75 95.37,26.27 25.86,10.5 46.75,26.4 62.64,47.69 15.9,21.28 23.84,49.7 23.84,85.26 0,34.49 -9.42,65.33 -28.28,92.55 -18.86,27.2 -45.13,48.62 -78.81,64.26 -33.68,15.62 -71.52,23.43 -113.55,23.43 -45.26,0 -85.53,-8.21 -120.83,-24.65 -35.29,-16.43 -62.91,-39.2 -82.84,-68.29 -19.94,-29.1 -30.18,-61.7 -30.71,-97.8l118.81 1.61z"/>
  <polygon id="_3_2" class="fil6" points="1947.92,2902.49 2069.15,2902.49 2069.15,3129.61 2293.84,3129.61 2293.84,2902.49 2415.07,2902.49 2415.07,3468.26 2293.84,3468.26 2293.84,3234.68 2069.15,3234.68 2069.15,3468.26 1947.92,3468.26 "/>
  <path id="_4_3" class="fil6" d="M2466 3468.26l206.91 -565.76 145.48 0 205.29 565.76 -130.12 0 -43.64 -123.66 -214.99 0 -43.64 123.66 -125.28 0zm201.24 -221.45l149.53 0 -75.16 -214.99 -74.36 214.99z"/>
  <path id="_5_4" class="fil6" d="M3151.36 3283.98c2.16,28.02 13.61,50.52 34.35,67.49 20.75,16.97 48.36,25.46 82.85,25.46 28.56,0 51.86,-6.07 69.91,-18.18 18.05,-12.13 27.07,-28.97 27.07,-50.52 0,-15.09 -4.98,-27.07 -14.95,-35.96 -9.97,-8.89 -23.98,-15.9 -42.03,-21.02 -18.05,-5.12 -45.93,-11.45 -83.66,-19 -37.17,-7.01 -68.43,-16.03 -93.75,-27.07 -25.33,-11.05 -45.93,-27.48 -61.84,-49.3 -15.9,-21.82 -23.84,-50.79 -23.84,-86.88 0,-32.87 9.02,-62.24 27.07,-88.1 18.05,-25.86 43.11,-46.2 75.17,-61.02 32.05,-14.82 68.29,-22.23 108.71,-22.23 41.49,0 78.8,7.68 111.94,23.03 33.13,15.36 59.27,36.51 78.4,63.45 19.13,26.94 28.96,57.38 29.5,91.33l-118.81 0c-2.69,-24.24 -12.93,-43.78 -30.71,-58.59 -17.78,-14.83 -41.22,-22.23 -70.31,-22.23 -26.94,0 -48.49,5.66 -64.66,16.97 -16.17,11.32 -24.25,27.49 -24.25,48.5 0,15.08 4.85,26.8 14.55,35.16 9.7,8.35 23.43,15.09 41.22,20.2 17.78,5.12 45.27,11.19 82.44,18.19 37.72,7.01 69.51,15.75 95.37,26.27 25.86,10.5 46.75,26.4 62.64,47.69 15.9,21.28 23.84,49.7 23.84,85.26 0,34.49 -9.42,65.33 -28.28,92.55 -18.86,27.2 -45.13,48.62 -78.81,64.26 -33.68,15.62 -71.52,23.43 -113.55,23.43 -45.26,0 -85.53,-8.21 -120.83,-24.65 -35.29,-16.43 -62.91,-39.2 -82.84,-68.29 -19.94,-29.1 -30.18,-61.7 -30.71,-97.8l118.81 1.61z"/>
  <polygon id="_6_5" class="fil6" points="3490.02,2902.49 3618.53,2902.49 3754.31,3321.16 3893.32,2902.49 4018.6,2902.49 3827.05,3468.26 3682.38,3468.26 "/>
  <polygon id="_7_6" class="fil6" points="4067.09,2902.49 4188.32,2902.49 4188.32,3468.26 4067.09,3468.26 "/>
  <path id="_8_7" class="fil6" d="M4462.31 3185.38c0,-57.65 11.32,-108.17 33.95,-151.55 22.63,-43.37 55.09,-76.92 97.39,-100.62 42.3,-23.71 92,-35.56 149.12,-35.56 44.72,0 84.87,8.62 120.43,25.86 35.56,17.25 64.26,41.49 86.08,72.74 21.82,31.25 35.16,67.08 40.01,107.5l-119.62 0c-7.54,-31.79 -22.63,-56.99 -45.26,-75.57 -22.63,-18.59 -50.92,-27.88 -84.87,-27.88 -31.25,0 -58.46,7.81 -81.63,23.43 -23.16,15.62 -40.95,37.45 -53.34,65.47 -12.4,28.02 -18.59,60.08 -18.59,96.19 0,55.5 13.6,100.22 40.81,134.17 27.21,33.94 64.79,50.91 112.75,50.91 35.03,0 66.01,-9.57 92.95,-28.69 26.94,-19.13 43.1,-47.28 48.49,-84.46l0 -7.27 -140.64 0 0 -96.19 252.98 0 0 314.4 -84.06 0 -12.93 -70.31c-16.7,22.09 -39.06,40.14 -67.08,54.15 -28.02,14.01 -60.62,21.02 -97.8,21.02 -53.34,0 -100.35,-11.85 -141.03,-35.56 -40.68,-23.71 -72.21,-57.38 -94.56,-101.03 -22.37,-43.65 -33.54,-94.03 -33.54,-151.14z"/>
  <polygon id="_9_8" class="fil6" points="5090.3,3468.26 5090.3,2902.49 5211.54,2902.49 5211.54,3363.99 5436.22,3363.99 5436.22,3468.26 "/>
  <path id="_10_9" class="fil6" d="M5997.95 3185.38c0,54.42 -11.85,103.59 -35.56,147.5 -23.72,43.92 -56.85,78.26 -99.41,103.05 -42.57,24.79 -91.07,37.17 -145.48,37.17 -54.42,0 -102.92,-12.39 -145.48,-37.17 -42.57,-24.79 -75.71,-59.14 -99.41,-103.05 -23.71,-43.92 -35.56,-93.08 -35.56,-147.5 0,-54.43 11.85,-103.59 35.56,-147.51 23.71,-43.91 56.85,-78.26 99.41,-103.04 42.57,-24.79 91.07,-37.18 145.48,-37.18 54.42,0 102.91,12.4 145.48,37.18 42.57,24.79 75.7,59.14 99.41,103.04 23.71,43.92 35.56,93.08 35.56,147.51zm-437.25 0c0,35.56 6.46,67.35 19.39,95.37 12.93,28.01 31.26,49.97 54.96,65.87 23.71,15.9 51.18,23.84 82.44,23.84 30.71,0 57.93,-7.94 81.63,-23.84 23.71,-15.9 42.02,-37.86 54.95,-65.87 12.93,-28.02 19.4,-59.81 19.4,-95.37 0,-35.57 -6.47,-67.36 -19.4,-95.38 -12.93,-28.01 -31.25,-49.97 -54.95,-65.87 -23.71,-15.9 -50.92,-23.84 -81.63,-23.84 -31.26,0 -58.73,7.94 -82.44,23.84 -23.71,15.9 -42.03,37.86 -54.96,65.87 -12.93,28.02 -19.39,59.81 -19.39,95.38z"/>
  <path id="_11_10" class="fil6" d="M6286.48 2902.49c65.74,0 116.66,12.93 152.75,38.8 36.1,25.86 54.16,62.5 54.16,109.92 0,35.02 -9.7,63.31 -29.1,84.86 -19.39,21.55 -46.88,35.56 -82.44,42.03 42.03,5.38 74.5,18.86 97.4,40.41 22.9,21.56 34.35,51.73 34.35,90.52 0,49.57 -18.87,88.51 -56.58,116.79 -37.72,28.29 -91.06,42.43 -160.03,42.43l-225.49 0 0 -565.76 214.99 0zm-93.76 232.77l96.99 0c25.86,0 46.06,-6.2 60.62,-18.59 14.54,-12.4 21.82,-29.1 21.82,-50.11 0,-21.02 -7.28,-37.72 -21.82,-50.11 -14.55,-12.39 -34.75,-18.59 -60.62,-18.59l-96.99 0 0 137.4zm0 236.81l105.08 0c29.09,0 51.59,-6.2 67.48,-18.6 15.9,-12.39 23.85,-29.63 23.85,-51.73 0,-23.16 -8.08,-41.08 -24.25,-53.74 -16.17,-12.66 -38.52,-18.99 -67.08,-18.99l-105.08 0 0 143.06z"/>
  <path id="_12_11" class="fil6" d="M6528.95 3468.26l206.91 -565.76 145.48 0 205.3 565.76 -130.12 0 -43.64 -123.66 -214.99 0 -43.64 123.66 -125.28 0zm201.24 -221.45l149.53 0 -75.16 -214.99 -74.36 214.99z"/>
  <polygon id="_13_12" class="fil6" points="7138.35,3468.26 7138.35,2902.49 7259.59,2902.49 7259.59,3363.99 7484.27,3363.99 7484.27,3468.26 "/>
  <polygon id="_14_13" class="fil6" points="7750.18,2902.49 8130.05,2902.49 8130.05,3006.75 7871.41,3006.75 7871.41,3133.65 8081.55,3133.65 8081.55,3233.06 7871.41,3233.06 7871.41,3363.99 8138.94,3363.99 8138.94,3468.26 7750.18,3468.26 "/>
  <path id="_15_14" class="fil6" d="M8211.68 2902.49l196.41 0c56.58,0 106.55,11.99 149.92,35.96 43.38,23.98 76.78,57.39 100.23,100.23 23.43,42.84 35.16,91.73 35.16,146.69 0,54.95 -11.72,103.86 -35.16,146.69 -23.44,42.84 -56.85,76.25 -100.23,100.23 -43.37,23.98 -93.35,35.96 -149.92,35.96l-196.41 0 0 -565.76zm196.41 464.74c51.18,0 90.93,-16.57 119.21,-49.71 28.29,-33.14 42.43,-77.19 42.43,-132.14 0,-54.96 -14.14,-99.01 -42.43,-132.15 -28.28,-33.14 -68.03,-49.71 -119.21,-49.71l-75.17 0 0 363.71 75.17 0z"/>
  <path id="_16_15" class="fil6" d="M8884.94 2902.49l0 328.14c0,45.8 8.89,80.28 26.68,103.45 17.78,23.17 45.79,34.75 84.05,34.75 38.25,0 66.41,-11.58 84.46,-34.75 18.04,-23.17 27.07,-57.65 27.07,-103.45l0 -328.14 121.23 0 0 321.68c0,80.82 -19.81,142.51 -59.41,185.08 -39.6,42.57 -97.38,63.85 -173.36,63.85 -75.98,0 -133.63,-21.28 -172.96,-63.85 -39.33,-42.57 -59,-104.26 -59,-185.08l0 -321.68 121.23 0z"/>
  <path id="_17_16" class="fil6" d="M9298.75 3185.38c0,-57.65 11.18,-108.17 33.54,-151.55 22.36,-43.37 54.42,-76.92 96.18,-100.62 41.76,-23.71 90.93,-35.56 147.5,-35.56 44.19,0 83.79,8.62 118.81,25.86 35.02,17.25 63.31,41.49 84.86,72.74 21.56,31.25 34.49,67.35 38.8,108.3l-121.23 0c-7.01,-32.33 -21.69,-57.79 -44.05,-76.38 -22.37,-18.59 -50.25,-27.88 -83.65,-27.88 -45.27,0 -81.1,16.97 -107.5,50.92 -26.41,33.94 -39.6,78.66 -39.6,134.17 0,54.95 13.19,99.54 39.6,133.75 26.4,34.22 62.23,51.32 107.5,51.32 33.4,0 61.28,-9.29 83.65,-27.88 22.36,-18.59 37.04,-44.05 44.05,-76.38l121.23 0c-4.3,40.95 -17.24,77.06 -38.8,108.3 -21.55,31.26 -49.84,55.5 -84.86,72.74 -35.03,17.25 -74.63,25.86 -118.81,25.86 -56.58,0 -105.74,-11.85 -147.5,-35.56 -41.76,-23.71 -73.82,-57.25 -96.18,-100.62 -22.37,-43.38 -33.54,-93.89 -33.54,-151.54z"/>
  <path id="_18_17" class="fil6" d="M9823.29 3468.26l206.91 -565.76 145.48 0 205.3 565.76 -130.12 0 -43.64 -123.66 -214.99 0 -43.64 123.66 -125.28 0zm201.24 -221.45l149.53 0 -75.16 -214.99 -74.36 214.99z"/>
  <polygon id="_19_18" class="fil6" points="10321.16,2902.49 10768.92,2902.49 10768.92,3006.75 10605.66,3006.75 10605.66,3468.26 10484.43,3468.26 10484.43,3006.75 10321.16,3006.75 "/>
  <polygon id="_20_19" class="fil6" points="10835.2,2902.49 10956.43,2902.49 10956.43,3468.26 10835.2,3468.26 "/>
  <path id="_21_20" class="fil6" d="M11590.89 3185.38c0,54.42 -11.85,103.59 -35.56,147.5 -23.72,43.92 -56.85,78.26 -99.41,103.05 -42.57,24.79 -91.07,37.17 -145.48,37.17 -54.42,0 -102.92,-12.39 -145.48,-37.17 -42.57,-24.79 -75.71,-59.14 -99.41,-103.05 -23.71,-43.92 -35.56,-93.08 -35.56,-147.5 0,-54.43 11.85,-103.59 35.56,-147.51 23.71,-43.91 56.85,-78.26 99.41,-103.04 42.57,-24.79 91.07,-37.18 145.48,-37.18 54.42,0 102.91,12.4 145.48,37.18 42.57,24.79 75.7,59.14 99.41,103.04 23.71,43.92 35.56,93.08 35.56,147.51zm-437.25 0c0,35.56 6.46,67.35 19.39,95.37 12.93,28.01 31.26,49.97 54.96,65.87 23.71,15.9 51.18,23.84 82.44,23.84 30.71,0 57.93,-7.94 81.63,-23.84 23.71,-15.9 42.02,-37.86 54.95,-65.87 12.93,-28.02 19.4,-59.81 19.4,-95.37 0,-35.57 -6.47,-67.36 -19.4,-95.38 -12.93,-28.01 -31.25,-49.97 -54.95,-65.87 -23.71,-15.9 -50.92,-23.84 -81.63,-23.84 -31.26,0 -58.73,7.94 -82.44,23.84 -23.71,15.9 -42.03,37.86 -54.96,65.87 -12.93,28.02 -19.39,59.81 -19.39,95.38z"/>
  <polygon id="_22_21" class="fil6" points="11664.44,3468.26 11664.44,2902.49 11774.37,2902.49 12014.41,3258.93 12014.41,2902.49 12134.03,2902.49 12134.03,3468.26 12023.3,3468.26 11783.26,3111.83 11783.26,3468.26 "/>
 </g>
</svg>
